<?xml version="1.0" standalone="yes"?>
<svg xmlns="http://www.w3.org/2000/svg" width="2000" height="2000">
<path style="fill:#0d010a; stroke:none;" d="M0 0L0 2000L2000 2000L2000 0L0 0z"/>
<path style="fill:#9a1f52; stroke:none;" d="M892 496C836.406 469.559 762.822 498.517 756.171 565C754.554 581.156 755.995 597.956 762.427 613C765.566 620.339 774.155 629.352 775.162 637C776.152 644.523 770.624 653.364 770 661L769 661C761.962 642.854 754.346 625.109 739 612.326C716.495 593.579 680.881 594.29 662.529 618C644.021 641.911 643.431 679.338 646.17 708C650.709 755.506 671.999 798.512 703.286 834C711.351 843.148 721.099 851.464 731 858.572C735.443 861.761 742.9 864.783 745.107 870.093C749.595 880.893 746.986 899.174 748.169 911C751.185 941.142 756.577 972.164 766 1001C770.47 1014.68 773.769 1027.29 784.039 1038C808.35 1063.34 846.186 1077 881 1077C896.233 1077 911.595 1075.24 924 1065.48C933.941 1057.66 939.521 1046.55 944 1035C961.223 1040.83 982.928 1041.91 1001 1042C1008.61 1042.04 1020.75 1039.5 1027.86 1041.77C1032.86 1043.37 1035 1056.62 1037.63 1061C1044.13 1071.83 1054.31 1079.17 1066 1083.57C1103.96 1097.86 1158.3 1091.64 1190 1065.69C1207.74 1051.17 1218.07 1023.48 1227.31 1003C1231.57 993.55 1237.23 983.262 1239 973C1253.54 983.251 1260.62 1001.53 1277 1009.73C1311.55 1027.02 1347.06 1003.78 1353.74 968C1362.37 921.766 1345.87 868.494 1320.33 830C1311.3 816.391 1301.27 804.304 1290.58 792C1287.06 787.954 1279.51 783.397 1278.36 777.985C1275.77 765.795 1279 748.699 1279 736C1279 731.009 1277.69 723.786 1279.6 719.105C1282.21 712.738 1294.91 707.824 1300 702.961C1312.26 691.257 1321.13 677.274 1325.96 661C1344.36 599.041 1285.18 523.755 1218 545C1219.02 538.029 1221.49 531.155 1220.83 524C1218.97 503.758 1203.83 488.008 1183 488.008C1174.39 488.008 1161.1 497.411 1154 495.243C1139.64 490.861 1126.49 480.376 1112 475.344C1067.51 459.896 1009.13 453.974 964 471C953.951 449.451 921.709 446.917 905.09 461.468C895.134 470.185 892.001 483.333 892 496z"/>
<path style="fill:#c6603f; stroke:none;" d="M928 483L928 484L932 484L928 483z"/>
<path style="fill:#ffd601; stroke:none;" d="M928 510C909.635 512.712 888.991 523.562 874 534.144C870.758 536.433 860.584 546.202 856.792 540.667C853.109 535.289 867.19 524.988 870 521C851.257 512.704 836.82 523.898 828.248 541C815.404 566.627 822.726 607.989 857 611C855.434 619.815 850.567 628.596 847.424 637C841.797 652.047 836.971 667.458 832.884 683C819.521 733.825 812.334 786.598 810.039 839C808.111 883.039 810.857 927.454 817.272 971C819.195 984.06 821.592 997.107 824.424 1010C826.028 1017.3 829.311 1025.52 829 1033C849.188 1039.87 887.139 1057.31 905.907 1038.9C911.371 1033.53 913.687 1026.1 916 1019C896.94 1012.8 877.971 1004.69 861 993.947C855.107 990.215 845.155 986.162 848 978C841.222 973.225 820.276 951.27 838.005 945.836C843.912 944.025 854.347 949.449 860 951.333C878.126 957.375 895.863 964.445 914 970.485C957.158 984.857 1003.09 985.216 1048 984.999C1067.33 984.906 1093.87 976.813 1112 985.189C1126.99 992.114 1117.42 1003.98 1107 1010C1110.41 1016.63 1103.29 1018.96 1098 1020.66C1085.57 1024.64 1072.61 1026.74 1060 1030C1062.02 1037.79 1063.28 1045.18 1070.02 1050.47C1078.84 1057.39 1091.33 1057.75 1102 1058.01C1126.23 1058.61 1160.95 1057.31 1175.57 1034C1219.75 963.57 1237.04 878.563 1244.83 797C1246.96 774.712 1247 752.401 1247 730C1247 720.296 1244.75 707.418 1247.32 698.059C1248.94 692.145 1266.7 688.646 1272 684.961C1286.83 674.66 1295.53 658.766 1297.71 641C1302.57 601.462 1268.86 574 1232 574C1233.95 578.167 1247.23 595.607 1239.21 598.427C1233.82 600.323 1226.13 588.172 1223 585C1209.85 571.699 1195.88 554.617 1179 546L1179 544C1196.9 535.254 1185.95 507.721 1170.39 527.015C1168.21 529.714 1166.95 532.713 1166 536C1120.24 505.132 1065.33 489.3 1010 493.089C987.458 494.633 966.181 501.01 944 504C943.49 497.762 934.608 475.79 925.738 486.318C920.045 493.076 925.248 503.289 928 510z"/>
<path style="fill:#c6603f; stroke:none;" d="M933 484L934 485L933 484M935 485L936 486L935 485M936 486L937 487L936 486M924 487L925 488L924 487M937 487L938 488L937 487M938 488L939 489L938 488M939 489L940 490L939 489M923 490L923 493L924 493L923 490M940 491L941 492L940 491M941 493L942 494L941 493M1004 493L1004 494L1007 494L1004 493M1040 493L1040 494L1048 494L1040 493M992 494L992 495L995 495L992 494M1054 494L1054 495L1059 495L1054 494M942 495L943 496L942 495M985 495L985 496L988 496L985 495M1063 495L1063 496L1066 496L1063 495M978 496L978 497L981 497L978 496M1069 496L1069 497L1072 497L1069 496M923.333 497.667L923.667 498.333L923.333 497.667M972.667 497.333L973.333 497.667L972.667 497.333M1075.67 497.333L1076.33 497.667L1075.67 497.333M943.333 498.667L943.667 499.333L943.333 498.667M968.667 498.333L969.333 498.667L968.667 498.333M1080.67 498.333L1081.33 498.667L1080.67 498.333M963.667 499.333L964.333 499.667L963.667 499.333M1084.67 499.333L1085.33 499.667L1084.67 499.333M958.667 500.333L959.333 500.667L958.667 500.333M1088.67 500.333L1089.33 500.667L1088.67 500.333M924.333 501.667L924.667 502.333L924.333 501.667M954 501L955 502L954 501M1092 501L1093 502L1092 501M950.667 502.333L951.333 502.667L950.667 502.333M1095.67 502.333L1096.33 502.667L1095.67 502.333M946.667 503.333L947.333 503.667L946.667 503.333M1099 503L1100 504L1099 503M925 504L926 505L925 504M1102 504L1103 505L1102 504M1105 505L1106 506L1105 505M926 506L927 507L926 506M1108 506L1109 507L1108 506M1111 507L1112 508L1111 507M927 508L926 510L928 510L927 508M1113.67 508.333L1114.33 508.667L1113.67 508.333M1116 509L1117 510L1116 509M923.667 510.333L924.333 510.667L923.667 510.333M1118.67 510.333L1119.33 510.667L1118.67 510.333M921 511L922 512L921 511M1121 511L1122 512L1121 511M918 512L919 513L918 512M1123 512L1124 513L1123 512M915 513L916 514L915 513M1126 513L1127 514L1126 513M913 514L914 515L913 514M1128 514L1129 515L1128 514M910 515L911 516L910 515M1130 515L1131 516L1130 515M842 516L842 517L853 517L842 516M907.667 516.333L908.333 516.667L907.667 516.333M1132 516L1133 517L1132 516M835.667 517.333L836.333 517.667L835.667 517.333z"/>
<path style="fill:#ffd601; stroke:none;" d="M837 517L838 518L837 517z"/>
<path style="fill:#ffe87c; stroke:none;" d="M830 1032C801.827 931.982 804.209 821.179 824.449 720C829.091 696.793 834.901 673.364 842.695 651C847.081 638.415 855.65 624.198 857 611C811.168 604.13 811.631 531.183 853 518C846.859 515.423 838.292 517.158 832 518.654C807.392 524.507 788.16 547.639 787.039 573C786.445 586.465 789.484 599.632 796.865 611C800.3 616.29 811.531 623.572 810.837 630.004C809.561 641.837 803.919 654.444 800.884 666C795.35 687.074 791.288 708.569 787.424 730C775.495 796.165 773.595 864.467 782.87 931C787.407 963.547 792.484 1020.96 830 1032z"/>
<path style="fill:#c6603f; stroke:none;" d="M858.667 517.333L859.333 517.667L858.667 517.333M905 517L906 518L905 517M1134 517L1135 518L1134 517M831 518L832 519L831 518z"/>
<path style="fill:#ffd601; stroke:none;" d="M832 518L833 519L832 518z"/>
<path style="fill:#c6603f; stroke:none;" d="M863 518L864 519L863 518M903 518L904 519L903 518M1136 518L1137 519L1136 518M828 519L829 520L828 519M866.667 519.333L867.333 519.667L866.667 519.333M900 519L901 520L900 519M1138 519L1139 520L1138 519M1181 519L1181 520L1185 520L1181 519M825 520L826 521L825 520M869 520L870 521L869 520M898 520L899 521L898 520M1140 520L1141 521L1140 520M1178 520L1179 521L1178 520z"/>
<path style="fill:#ffd601; stroke:none;" d="M823 521L824 522L823 521z"/>
<path style="fill:#c6603f; stroke:none;" d="M870 521L871 522L870 521M896 521L897 522L896 521M1142 521L1143 522L1142 521M1176 521L1177 522L1176 521z"/>
<path style="fill:#ffd601; stroke:none;" d="M821 522L822 523L821 522z"/>
<path style="fill:#c6603f; stroke:none;" d="M869 522L870 523L869 522M893 522L894 523L893 522M1144 522L1145 523L1144 522M1188 522L1189 523L1188 522z"/>
<path style="fill:#ffd601; stroke:none;" d="M819 523L820 524L819 523z"/>
<path style="fill:#c6603f; stroke:none;" d="M868 523L869 524L868 523M891 523L892 524L891 523M1145 523L1146 524L1145 523M1173 523L1174 524L1173 523z"/>
<path style="fill:#ffd601; stroke:none;" d="M817 524L818 525L817 524z"/>
<path style="fill:#c6603f; stroke:none;" d="M889 524L890 525L889 524M1147 524L1148 525L1147 524M1172 524L1173 525L1172 524M815 525L816 526L815 525M1149 525L1150 526L1149 525M1171 525L1172 526L1171 525M886 526L887 527L886 526M1170 526L1171 527L1170 526M812 527L813 528L812 527M884 527L885 528L884 527M1152 527L1153 528L1152 527M1154 528L1155 529L1154 528M809 529L810 530L809 529M881 529L882 530L881 529M1168 529L1169 530L1168 529M808 530L809 531L808 530M879 530L880 531L879 530M1157 530L1158 531L1157 530M807 531L808 532L807 531M1167 531L1168 532L1167 531M1188.33 531.667L1188.67 532.333L1188.33 531.667M806 532L807 533L806 532M876 532L877 533L876 532M1160 532L1161 533L1160 532M1162 533L1163 534L1162 533M1166 533L1167 534L1166 533M873 534L874 535L873 534M1163 534L1164 535L1163 534M1187 534L1188 535L1187 534M856 535L857 536L856 535M872 535L873 536L872 535M1165 535L1166 536L1165 535M802 536L803 537L802 536M1186 536L1187 537L1186 536M801 537L802 538L801 537M869 537L870 538L869 537M800 538L801 539L800 538M855 538L855 541L856 541L855 538M1185 538L1186 539L1185 538M1184 539L1185 540L1184 539M865 540L866 541L865 540z"/>
<path style="fill:#ffd601; stroke:none;" d="M798 541L799 542L798 541z"/>
<path style="fill:#c6603f; stroke:none;" d="M863 541L864 542L863 541M797 542L798 543L797 542M861 542L862 543L861 542z"/>
<path style="fill:#ffd601; stroke:none;" d="M796 544L797 545L796 544z"/>
<path style="fill:#c6603f; stroke:none;" d="M1179 544L1180 545L1179 544M795 545L796 546L795 545M1180 546L1181 547L1180 546M794 547L795 548L794 547M793 549L794 550L793 549M1184 549L1185 550L1184 549M1185 550L1186 551L1185 550M792 551L793 552L792 551M916.667 552.333L917.333 552.667L916.667 552.333z"/>
<path style="fill:#9a1f52; stroke:none;" d="M918 552.439C901.567 555.026 891.355 573.629 911 581.522C923.935 586.718 934.362 580.738 947 578.464C952.906 577.402 959.201 578.967 964.995 577.276C976.905 573.8 968.848 562.448 962 558.532C949.934 551.634 931.511 550.312 918 552.439z"/>
<path style="fill:#c6603f; stroke:none;" d="M940.667 552.333L941.333 552.667L940.667 552.333M791 553L792 554L791 553M911.667 553.333L912.333 553.667L911.667 553.333M946.667 553.333L947.333 553.667L946.667 553.333M1189 553L1190 554L1189 553M908.667 554.333L909.333 554.667L908.667 554.333M951.667 554.333L952.333 554.667L951.667 554.333M1190 554L1191 555L1190 554M790 555L791 556L790 555M906 555L907 556L906 555M954.667 555.333L955.333 555.667L954.667 555.333z"/>
<path style="fill:#ffd601; stroke:none;" d="M790 556L791 557L790 556z"/>
<path style="fill:#c6603f; stroke:none;" d="M957 556L958 557L957 556M789 558L790 559L789 558M1195 558L1196 559L1195 558z"/>
<path style="fill:#ffd601; stroke:none;" d="M789 559L790 560L789 559z"/>
<path style="fill:#c6603f; stroke:none;" d="M963 559L964 560L963 559M1196 559L1197 560L1196 559M901 560L902 561L901 560M1197 560L1198 561L1197 560M788.333 561.667L788.667 562.333L788.333 561.667M966 561L967 562L966 561M900 562L901 563L900 562M967 562L968 563L967 562z"/>
<path style="fill:#ffd601; stroke:none;" d="M788 563L789 564L788 563z"/>
<path style="fill:#c6603f; stroke:none;" d="M968 563L969 564L968 563M969 564L970 565L969 564M787.333 566.667L787.667 567.333L787.333 566.667M1204 566L1205 567L1204 566M1205 567L1206 568L1205 567z"/>
<path style="fill:#ffd601; stroke:none;" d="M787 568L788 569L787 568z"/>
<path style="fill:#c6603f; stroke:none;" d="M971 568L972 569L971 568M1206 568L1207 569L1206 568M1207 569L1208 570L1207 569M1208 570L1209 571L1208 570M900.333 571.667L900.667 572.333L900.333 571.667M971.333 571.667L971.667 572.333L971.333 571.667M1209 571L1210 572L1209 571M1210 572L1211 573L1210 572M1211 573L1212 574L1211 573M901 574L902 575L901 574M970 574L971 575L970 574M1212 574L1213 575L1212 574M1243 574L1243 575L1247 575L1243 574M969 575L970 576L969 575M1213 575L1214 576L1213 575M1232 575L1233 576L1232 575M1250.67 575.333L1251.33 575.667L1250.67 575.333M1214 576L1215 577L1214 576M1254 576L1255 577L1254 576M964.667 577.333L965.333 577.667L964.667 577.333M1215 577L1216 578L1215 577M1233 577L1234 578L1233 577M1257 577L1258 578L1257 577M905 578L906 579L905 578M946.667 578.333L947.333 578.667L946.667 578.333M1216 578L1217 579L1216 578M1234 578L1235 579L1234 578M1260 578L1261 579L1260 578M906 579L907 580L906 579M942.667 579.333L943.333 579.667L942.667 579.333M1217 579L1218 580L1217 579M1262 579L1263 580L1262 579M908 580L909 581L908 580M939 580L940 581L939 580M1218 580L1219 581L1218 580M1235 580L1236 581L1235 580M1264 580L1265 581L1264 580M910 581L911 582L910 581M935.667 581.333L936.333 581.667L935.667 581.333M1219 581L1220 582L1219 581M1266 581L1267 582L1266 581M913 582L914 583L913 582M932.667 582.333L933.333 582.667L932.667 582.333M1220 582L1221 583L1220 582M1236 582L1237 583L1236 582M1268 582L1269 583L1268 582M916 583L916 584L919 584L916 583M928.667 583.333L929.333 583.667L928.667 583.333M1221 583L1222 584L1221 583M1222 584L1223 585L1222 584M1271 584L1272 585L1271 584z"/>
<path style="fill:#ffd601; stroke:none;" d="M787 585L788 586L787 585z"/>
<path style="fill:#c6603f; stroke:none;" d="M1238 585L1239 586L1238 585M787.333 586.667L787.667 587.333L787.333 586.667M1274 586L1275 587L1274 586M1239 587L1240 588L1239 587M1275 587L1276 588L1275 587M1240 589L1241 590L1240 589z"/>
<path style="fill:#ffd601; stroke:none;" d="M788 591L789 592L788 591z"/>
<path style="fill:#c6603f; stroke:none;" d="M1142.67 591.333L1143.33 591.667L1142.67 591.333z"/>
<path style="fill:#9a1f52; stroke:none;" d="M1144 591.439C1137.57 592.451 1125.51 597.251 1131.74 605.786C1135.29 610.641 1142.98 611.188 1148 613.901C1160.42 620.621 1170.23 633.286 1186 630.38C1198.85 628.012 1203.76 613.29 1192.96 604.761C1180.76 595.131 1159.46 589.005 1144 591.439z"/>
<path style="fill:#c6603f; stroke:none;" d="M1156 591L1156 592L1159 592L1156 591M1241 591L1242 592L1241 591M788 592L789 593L788 592M1138 592L1139 593L1138 592M1162.67 592.333L1163.33 592.667L1162.67 592.333M1229 592L1230 593L1229 592M1135 593L1136 594L1135 593M1167 593L1168 594L1167 593M1230 593L1231 594L1230 593M1170.67 594.333L1171.33 594.667L1170.67 594.333M1231 594L1232 595L1231 594M1242 594L1242 597L1243 597L1242 594M789 595L790 596L789 595M1132 595L1133 596L1132 595M1174 595L1175 596L1174 595M1131 596L1132 597L1131 596M1177 596L1178 597L1177 596M1284 596L1285 597L1284 596M1130 597L1131 598L1130 597M1179 597L1180 598L1179 597M1234 597L1235 598L1234 597M1285 597L1286 598L1285 597M790 598L791 599L790 598M1182 598L1183 599L1182 598M1236 598L1237 599L1236 598M1184 599L1185 600L1184 599M1238 599L1239 600L1238 599z"/>
<path style="fill:#ffd601; stroke:none;" d="M791 600L792 601L791 600z"/>
<path style="fill:#c6603f; stroke:none;" d="M926 600L926 601L929 601L926 600z"/>
<path style="fill:#9a1f52; stroke:none;" d="M929 600.428C917.705 602.032 905.64 607.275 898.993 617.004C894.589 623.449 895.296 633.218 904.001 635.566C917.536 639.216 923.976 618.536 940 624.109C951.28 628.031 953.488 647.359 966 645.771C979.959 643.999 975.37 627.87 970.3 620C961.942 607.024 944.622 598.21 929 600.428z"/>
<path style="fill:#c6603f; stroke:none;" d="M937.667 600.333L938.333 600.667L937.667 600.333M1186 600L1187 601L1186 600M1287 600L1288 601L1287 600M791 601L792 602L791 601M921.667 601.333L922.333 601.667L921.667 601.333M943.667 601.333L944.333 601.667L943.667 601.333M1288 601L1289 602L1288 601M918.667 602.333L919.333 602.667L918.667 602.333M946.667 602.333L947.333 602.667L946.667 602.333M1189 602L1190 603L1189 602M792 603L793 604L792 603M916 603L917 604L916 603M949.667 603.333L950.333 603.667L949.667 603.333M1191 603L1192 604L1191 603M1289 603L1290 604L1289 603M914 604L915 605L914 604M952 604L953 605L952 604M1130 604L1131 605L1130 604M1192 604L1193 605L1192 604M793 605L794 606L793 605M912 605L913 606L912 605M954 605L955 606L954 605M1290 605L1291 606L1290 605M910 606L911 607L910 606M956 606L957 607L956 606M909 607L910 608L909 607z"/>
<path style="fill:#ffd601; stroke:none;" d="M795 608L796 609L795 608z"/>
<path style="fill:#c6603f; stroke:none;" d="M907 608L908 609L907 608M959 608L960 609L959 608M1134 608L1135 609L1134 608M1292.33 608.667L1292.67 609.333L1292.33 608.667M906 609L907 610L906 609M960 609L961 610L960 609M1136 609L1137 610L1136 609M1197 609L1198 610L1197 609M796 610L797 611L796 610M905 610L906 611L905 610M1139 610L1140 611L1139 610M1142 611L1143 612L1142 611M1198 611L1199 612L1198 611M1293 611L1294 612L1293 611M1145 612L1146 613L1145 612M798 613L799 614L798 613M1147 613L1148 614L1147 613M1199 613L1199 619L1200 619L1199 613M1294 613L1295 614L1294 613M799 614L800 615L799 614M1149 614L1150 615L1149 614M899 616L900 617L899 616M1152 616L1153 617L1152 616M1295 616L1296 617L1295 616M898 617L899 618L898 617M968 617L969 618L968 617M802 618L803 619L802 618M969 618L970 619L969 618M1155 618L1156 619L1155 618M803 619L804 620L803 619M1156 619L1157 620L1156 619M1296.33 619.667L1296.67 620.333L1296.33 619.667M804 620L805 621L804 620M896.333 620.667L896.667 621.333L896.333 620.667M970 620L971 621L970 620M805 621L806 622L805 621M1198 621L1199 622L1198 621M1160 622L1161 623L1160 622M927.667 623.333L928.333 623.667L927.667 623.333M937.667 623.333L938.333 623.667L937.667 623.333M972 623L973 624L972 623M1161 623L1162 624L1161 623M1197 623L1198 624L1197 623z"/>
<path style="fill:#ffd601; stroke:none;" d="M809 624L810 625L809 624z"/>
<path style="fill:#c6603f; stroke:none;" d="M925 624L926 625L925 624M941 624L942 625L941 624M1297 624L1297 627L1298 627L1297 624M810 625L811 626L810 625M943 625L944 626L943 625M973 625L974 626L973 625M1164 625L1165 626L1164 625M811 626L812 627L811 626M921 626L922 627L921 626M945 626L946 627L945 626M1195 626L1196 627L1195 626M920 627L921 628L920 627M1194 627L1195 628L1194 627M811 628L812 629L811 628M974 628L975 629L974 628M1170 628L1171 629L1170 628M1192 628L1193 629L1192 628M896 629L897 630L896 629M1172.67 629.333L1173.33 629.667L1172.67 629.333M1190 629L1191 630L1190 629M697 630L697 631L704 631L697 630M1177.67 630.333L1178.33 630.667L1177.67 630.333M1185 630L1185 631L1188 631L1185 630M694 631L695 632L694 631z"/>
<path style="fill:#ffe87c; stroke:none;" d="M695 631C695.097 642.752 699.323 653.98 703 665C711.098 689.27 721.971 713.098 735.204 735C741.458 745.352 748.532 758.342 758 766C760.334 753.433 761.649 740.623 763.753 728C764.623 722.781 767.381 715.39 766.512 710.17C765.217 702.399 751.522 693.91 747.09 687C735.807 669.406 733.213 640.633 711 632.7C705.742 630.822 700.499 631 695 631z"/>
<path style="fill:#c6603f; stroke:none;" d="M707.667 631.333L708.333 631.667L707.667 631.333M810 631L811 632L810 631M897 631L898 632L897 631M916 631L917 632L916 631M975.333 631.667L975.667 632.333L975.333 631.667M692 632L693 633L692 632z"/>
<path style="fill:#ffd601; stroke:none;" d="M753 835C755.039 818.866 754.951 802.25 756.089 786C756.494 780.234 759.187 772.614 757.432 767C753.895 755.687 741.428 744.303 735.204 734C718.012 705.545 696.461 665.951 695 632C676.373 638.386 677 673.202 677 689C677 742.458 704.824 807.552 753 835M710 632L711 633L710 632z"/>
<path style="fill:#c6603f; stroke:none;" d="M711 632L712 633L711 632M898 632L899 633L898 632M915 632L916 633L915 632M951 632L952 633L951 632M713 633L714 634L713 633M899 633L900 634L899 633M914 633L915 634L914 633M715 634L716 635L715 634M809 634L810 635L809 634M900 634L901 635L900 634M913 634L914 635L913 634M952 634L953 635L952 634z"/>
<path style="fill:#ffd601; stroke:none;" d="M809 635L810 636L809 635z"/>
<path style="fill:#c6603f; stroke:none;" d="M902 635L903 636L902 635M911 635L912 636L911 635M718 636L719 637L718 636M905 636L905 637L909 637L905 636M953.333 636.667L953.667 637.333L953.333 636.667M687 637L688 638L687 637z"/>
<path style="fill:#ffd601; stroke:none;" d="M719 637L720 638L719 637z"/>
<path style="fill:#c6603f; stroke:none;" d="M808.333 637.667L808.667 638.333L808.333 637.667M975.333 637.667L975.667 638.333L975.333 637.667M1138 637L1138 638L1142 638L1138 637M686 638L687 639L686 638M1130.67 638.333L1131.33 638.667L1130.67 638.333z"/>
<path style="fill:#9a1f52; stroke:none;" d="M1132 638.439C1122.07 640.002 1111.53 645.464 1105.85 654.001C1101.55 660.479 1102.73 669.816 1111 672.343C1124.33 676.413 1131.03 655.647 1147 661.559C1158.52 665.824 1160.48 686.54 1174 683.602C1188.62 680.425 1180.72 662.688 1175.21 655C1165.48 641.415 1148.15 635.896 1132 638.439z"/>
<path style="fill:#c6603f; stroke:none;" d="M1148.67 638.333L1149.33 638.667L1148.67 638.333M1126 639L1127 640L1126 639M1152.67 639.333L1153.33 639.667L1152.67 639.333M685 640L686 641L685 640M974 640L975 641L974 640M1123 640L1124 641L1123 640M1156 640L1157 641L1156 640M807 641L808 642L807 641M955 641L956 642L955 641M1121 641L1122 642L1121 641M1158 641L1159 642L1158 641M684 642L685 643L684 642z"/>
<path style="fill:#ffd601; stroke:none;" d="M724 642L725 643L724 642z"/>
<path style="fill:#c6603f; stroke:none;" d="M1119 642L1120 643L1119 642M1160 642L1161 643L1160 642M1297 642L1297 646L1298 646L1297 642M725 643L726 644L725 643M957 643L958 644L957 643M1117 643L1118 644L1117 643M1162 643L1163 644L1162 643M683 644L684 645L683 644M806 644L807 645L806 644M958 644L959 645L958 644M970 644L971 645L970 644M1164 644L1165 645L1164 644z"/>
<path style="fill:#ffd601; stroke:none;" d="M806 645L807 646L806 645z"/>
<path style="fill:#c6603f; stroke:none;" d="M960 645L961 646L960 645M968 645L969 646L968 645M1114 645L1115 646L1114 645M1165 645L1166 646L1165 645M682.333 646.667L682.667 647.333L682.333 646.667z"/>
<path style="fill:#ffd601; stroke:none;" d="M727 646L728 647L727 646z"/>
<path style="fill:#c6603f; stroke:none;" d="M1113 646L1114 647L1113 646M805.333 647.667L805.667 648.333L805.333 647.667M1168 647L1169 648L1168 647M1169 648L1170 649L1169 648M1296.33 648.667L1296.67 649.333L1296.33 648.667M681.333 649.667L681.667 650.333L681.333 649.667M729 649L730 650L729 649M1170 649L1171 650L1170 649M1171 650L1172 651L1171 650M730 651L731 652L730 651M804.333 651.667L804.667 652.333L804.333 651.667M1172 651L1173 652L1172 651M1295.33 652.667L1295.67 653.333L1295.33 652.667M680 653L681 654L680 653M731 653L732 654L731 653M1105 654L1106 655L1105 654M732 655L733 656L732 655M803 655L804 656L803 655M1175 655L1176 656L1175 655M1294.33 655.667L1294.67 656.333L1294.33 655.667z"/>
<path style="fill:#ffd601; stroke:none;" d="M803 656L804 657L803 656z"/>
<path style="fill:#c6603f; stroke:none;" d="M679 657L680 658L679 657M733 657L734 658L733 657M1103 658L1104 659L1103 658M1177 658L1178 659L1177 658M1293 658L1294 659L1293 658M734 659L735 660L734 659M802 659L803 660L802 659z"/>
<path style="fill:#ffd601; stroke:none;" d="M802 660L803 661L802 660z"/>
<path style="fill:#c6603f; stroke:none;" d="M1135 660L1135 661L1138 661L1135 660M1142.67 660.333L1143.33 660.667L1142.67 660.333M1178 660L1179 661L1178 660M1292 660L1293 661L1292 660M986 663L989 662L986 663M1132 661L1133 662L1132 661M1147 661L1148 662L1147 661M678.333 662.667L678.667 663.333L678.333 662.667M735 662L736 663L735 662M801.333 662.667L801.667 663.333L801.333 662.667z"/>
<path style="fill:#9a1f52; stroke:none;" d="M1084 679C1062.6 679.059 1046.12 690.203 1024 682.302C1014.89 679.049 1006.48 673.979 999 667.92C996.445 665.85 992.048 661.408 988.318 662.711C984.8 663.94 986.057 670.297 986.425 673C987.886 683.739 989.62 694.595 992.721 705C995.185 713.269 998.029 721.49 1002.34 729C1004.38 732.554 1006.9 735.999 1010.04 738.66C1033.32 758.38 1057.92 727.59 1069.65 710C1075.65 700.985 1083.03 690.025 1084 679z"/>
<path style="fill:#c6603f; stroke:none;" d="M991 662L992 663L991 662M1130 662L1131 663L1130 662M1149 662L1150 663L1149 662M1179 662L1180 663L1179 662M1291 662L1292 663L1291 662M993 663L994 664L993 663M1128 663L1129 664L1128 663M1151 663L1152 664L1151 663M736 664L737 665L736 664M994 664L995 665L994 664M1180 664L1181 665L1180 664M1290 664L1291 665L1290 664M1103 665L1104 666L1103 665M1154 665L1155 666L1154 665M737.333 666.667L737.667 667.333L737.333 666.667M800.333 666.667L800.667 667.333L800.333 666.667M1155 666L1156 667L1155 666M1181.33 666.667L1181.67 667.333L1181.33 666.667M1289 666L1290 667L1289 666M998 667L999 668L998 667M1104 667L1105 668L1104 667M677 668L677 672L678 672L677 668M999 668L1000 669L999 668M1123 668L1124 669L1123 668M738 669L739 670L738 669M1000 669L1001 670L1000 669M1122 669L1123 670L1122 669M1157 669L1158 670L1157 669M1182.33 669.667L1182.67 670.333L1182.33 669.667M1287 669L1288 670L1287 669M799.333 670.667L799.667 671.333L799.333 670.667M1121 670L1122 671L1121 670M1158 670L1159 671L1158 670M1286 670L1287 671L1286 670M1003 671L1004 672L1003 671M1108 671L1109 672L1108 671M1120 671L1121 672L1120 671M739 672L740 673L739 672M1004 672L1005 673L1004 672M1110 672L1111 673L1110 672M1117.67 672.333L1118.33 672.667L1117.67 672.333M1159 672L1160 673L1159 672M986 673L986 676L987 676L986 673M1006 673L1007 674L1006 673M1284 673L1285 674L1284 673M740 674L741 675L740 674M798.333 674.667L798.667 675.333L798.333 674.667M1007 674L1008 675L1007 674M1283 674L1284 675L1283 674M1009 675L1010 676L1009 675M1160 675L1161 676L1160 675M1182.33 675.667L1182.67 676.333L1182.33 675.667M1282 675L1283 676L1282 675M741 676L742 677L741 676z"/>
<path style="fill:#ffd601; stroke:none;" d="M798 676L799 677L798 676z"/>
<path style="fill:#c6603f; stroke:none;" d="M1011 676L1012 677L1011 676M742 678L743 679L742 678M1079 678L1079 679L1083 679L1079 678M1161 678L1162 679L1161 678M1181 678L1182 679L1181 678M797 679L798 680L797 679M1017 679L1018 680L1017 679M1075 679L1076 680L1075 679M743 680L744 681L743 680z"/>
<path style="fill:#ffd601; stroke:none;" d="M797 680L798 681L797 680z"/>
<path style="fill:#c6603f; stroke:none;" d="M987 680L987 683L988 683L987 680M1019 680L1020 681L1019 680M1072 680L1073 681L1072 680M1084.33 680.667L1084.67 681.333L1084.33 680.667M1277 680L1278 681L1277 680M1021.67 681.333L1022.33 681.667L1021.67 681.333M1069.67 681.333L1070.33 681.667L1069.67 681.333M1276 681L1277 682L1276 681M744 682L745 683L744 682M1024 682L1025 683L1024 682M1066 682L1067 683L1066 682M1165 682L1166 683L1165 682M1177 682L1178 683L1177 682M1275 682L1276 683L1275 682M676 683L676 692L677 692L676 683M796 683L797 684L796 683M1027.67 683.333L1028.33 683.667L1027.67 683.333M1062.67 683.333L1063.33 683.667L1062.67 683.333M1083.33 683.667L1083.67 684.333L1083.33 683.667M1167 683L1168 684L1167 683M1175 683L1176 684L1175 683M745 684L746 685L745 684z"/>
<path style="fill:#ffd601; stroke:none;" d="M796 684L797 685L796 684z"/>
<path style="fill:#c6603f; stroke:none;" d="M1031.67 684.333L1032.33 684.667L1031.67 684.333M1057.67 684.333L1058.33 684.667L1057.67 684.333M1272 684L1273 685L1272 684M1038 685L1038 686L1042 686L1038 685M1047 685L1047 686L1052 686L1047 685z"/>
<path style="fill:#ffd601; stroke:none;" d="M746 686L747 687L746 686z"/>
<path style="fill:#c6603f; stroke:none;" d="M988.333 686.667L988.667 687.333L988.333 686.667M1082 686L1083 687L1082 686M1269 686L1270 687L1269 686M747 687L748 688L747 687M795.333 687.667L795.667 688.333L795.333 687.667M1081 688L1082 689L1081 688M1266 688L1267 689L1266 688z"/>
<path style="fill:#ffd601; stroke:none;" d="M748 689L749 690L748 689z"/>
<path style="fill:#c6603f; stroke:none;" d="M1264 689L1265 690L1264 689M749 690L750 691L749 690M1262 690L1263 691L1262 690M989.333 691.667L989.667 692.333L989.333 691.667M1259 691L1260 692L1259 691M794 692L795 693L794 692M1256.67 692.333L1257.33 692.667L1256.67 692.333M751 693L752 694L751 693z"/>
<path style="fill:#ffd601; stroke:none;" d="M794 693L795 694L794 693z"/>
<path style="fill:#c6603f; stroke:none;" d="M1253.67 693.333L1254.33 693.667L1253.67 693.333M752 694L753 695L752 694M1078 694L1079 695L1078 694M1248 694L1248 695L1251 695L1248 694M793.333 696.667L793.667 697.333L793.333 696.667M990.333 696.667L990.667 697.333L990.333 696.667M1077 696L1078 697L1077 696z"/>
<path style="fill:#ffd601; stroke:none;" d="M793 698L794 699L793 698z"/>
<path style="fill:#c6603f; stroke:none;" d="M1076 698L1077 699L1076 698M991.333 700.667L991.667 701.333L991.333 700.667M1075 700L1076 701L1075 700M792.333 701.667L792.667 702.333L792.333 701.667M1247 702L1247 759L1248 759L1248 720L1247 702z"/>
<path style="fill:#ffd601; stroke:none;" d="M792 703L793 704L792 703z"/>
<path style="fill:#c6603f; stroke:none;" d="M1073 703L1074 704L1073 703M677 704L677 707L678 707L677 704M992 704L993 705L992 704M763 705L764 706L763 705M1072 705L1073 706L1072 705M764 706L765 707L764 706M791.333 706.667L791.667 707.333L791.333 706.667z"/>
<path style="fill:#ffd601; stroke:none;" d="M765 707L766 708L765 707z"/>
<path style="fill:#c6603f; stroke:none;" d="M993.333 707.667L993.667 708.333L993.333 707.667M1070 708L1071 709L1070 708M767 709L768 710L767 709M994.333 710.667L994.667 711.333L994.333 710.667M790.333 711.667L790.667 712.333L790.333 711.667M1068 711L1069 712L1068 711M678.333 712.667L678.667 713.333L678.333 712.667z"/>
<path style="fill:#ffd601; stroke:none;" d="M766 712L767 713L766 712z"/>
<path style="fill:#c6603f; stroke:none;" d="M766.333 713.667L766.667 714.333L766.333 713.667z"/>
<path style="fill:#ffd601; stroke:none;" d="M790 713L791 714L790 713z"/>
<path style="fill:#c6603f; stroke:none;" d="M995.333 713.667L995.667 714.333L995.333 713.667M1066 714L1067 715L1066 714M1065 715L1066 716L1065 715M789.333 716.667L789.667 717.333L789.333 716.667M996 716L997 717L996 716z"/>
<path style="fill:#ffd601; stroke:none;" d="M765 717L766 718L765 717z"/>
<path style="fill:#c6603f; stroke:none;" d="M679.333 718.667L679.667 719.333L679.333 718.667M765.333 718.667L765.667 719.333L765.333 718.667z"/>
<path style="fill:#ffd601; stroke:none;" d="M789 718L790 719L789 718z"/>
<path style="fill:#c6603f; stroke:none;" d="M1063 718L1064 719L1063 718M997 719L998 720L997 719M998 721L999 722L998 721M788.333 722.667L788.667 723.333L788.333 722.667M1060 722L1061 723L1060 722M680.333 723.667L680.667 724.333L680.333 723.667z"/>
<path style="fill:#ffd601; stroke:none;" d="M764 723L765 724L764 723z"/>
<path style="fill:#c6603f; stroke:none;" d="M999 723L1000 724L999 723M1059 723L1060 724L1059 723M764.333 724.667L764.667 725.333L764.333 724.667z"/>
<path style="fill:#ffd601; stroke:none;" d="M788 724L789 725L788 724z"/>
<path style="fill:#c6603f; stroke:none;" d="M1000 725L1001 726L1000 725M787.333 727.667L787.667 728.333L787.333 727.667M1001 727L1002 728L1001 727M681.333 728.667L681.667 729.333L681.333 728.667M1055 728L1056 729L1055 728z"/>
<path style="fill:#ffd601; stroke:none;" d="M763 729L764 730L763 729M787 729L788 730L787 729z"/>
<path style="fill:#c6603f; stroke:none;" d="M1002 729L1003 730L1002 729M1054 729L1055 730L1054 729M763.333 730.667L763.667 731.333L763.333 730.667M1053 730L1054 731L1053 730M1052 731L1053 732L1052 731M682 732L683 733L682 732M1004 732L1005 733L1004 732M1051 732L1052 733L1051 732M786.333 733.667L786.667 734.333L786.333 733.667M1005 733L1006 734L1005 733M1050 733L1051 734L1050 733M1049 734L1050 735L1049 734M683.333 735.667L683.667 736.333L683.333 735.667z"/>
<path style="fill:#ffd601; stroke:none;" d="M762 735L763 736L762 735M786 735L787 736L786 735z"/>
<path style="fill:#c6603f; stroke:none;" d="M762.333 736.667L762.667 737.333L762.333 736.667M1045 737L1046 738L1045 737M1044 738L1045 739L1044 738M684 739L685 740L684 739M785.333 740.667L785.667 741.333L785.333 740.667M1012 740L1013 741L1012 740M1041 740L1042 741L1041 740z"/>
<path style="fill:#ffd601; stroke:none;" d="M761 741L762 742L761 741z"/>
<path style="fill:#c6603f; stroke:none;" d="M1039 741L1040 742L1039 741M685.333 742.667L685.667 743.333L685.333 742.667M761.333 742.667L761.667 743.333L761.333 742.667z"/>
<path style="fill:#ffd601; stroke:none;" d="M785 742L786 743L785 742z"/>
<path style="fill:#c6603f; stroke:none;" d="M1016 742L1017 743L1016 742M1037 742L1038 743L1037 742M1018 743L1019 744L1018 743M1034.67 743.333L1035.33 743.667L1034.67 743.333M1021 744L1021 745L1024 745L1021 744M1030.67 744.333L1031.33 744.667L1030.67 744.333M686 745L687 746L686 745M784.333 746.667L784.667 747.333L784.333 746.667M687 748L688 749L687 748z"/>
<path style="fill:#ffd601; stroke:none;" d="M760 748L761 749L760 748M784.333 748.667L784.667 749.333L784.333 748.667z"/>
<path style="fill:#c6603f; stroke:none;" d="M760.333 749.667L760.667 750.333L760.333 749.667M688 751L689 752L688 751M689 753L690 754L689 753M783.333 753.667L783.667 754.333L783.333 753.667z"/>
<path style="fill:#ffd601; stroke:none;" d="M759 755L760 756L759 755M783.333 755.667L783.667 756.333L783.333 755.667z"/>
<path style="fill:#c6603f; stroke:none;" d="M690 756L691 757L690 756M759 756L759 759L760 759L759 756M691 758L692 759L691 758M692 760L693 761L692 760M782 760L782 763L783 763L782 760M693 763L694 764L693 763z"/>
<path style="fill:#ffd601; stroke:none;" d="M758 763L759 764L758 763M782 763L783 764L782 763z"/>
<path style="fill:#c6603f; stroke:none;" d="M758 764L758 767L759 767L758 764M694 765L695 766L694 765M695 767L696 768L695 767M696 769L697 770L696 769M781.333 769.667L781.667 770.333L781.333 769.667M1246 770L1246 779L1247 779L1246 770M697 771L698 772L697 771z"/>
<path style="fill:#ffd601; stroke:none;" d="M781.333 771.667L781.667 772.333L781.333 771.667z"/>
<path style="fill:#c6603f; stroke:none;" d="M698 773L699 774L698 773M757 773L757 776L758 776L757 773M700 776L701 777L700 776M780 777L780 780L781 780L780 777M701 778L702 779L701 778M702 780L703 781L702 780z"/>
<path style="fill:#ffd601; stroke:none;" d="M780.333 780.667L780.667 781.333L780.333 780.667z"/>
<path style="fill:#c6603f; stroke:none;" d="M756 782L756 786L757 786L756 782M704 783L705 784L704 783M706 786L707 787L706 786M1245 787L1245 793L1246 793L1245 787M707 788L708 789L707 788M779 788L779 791L780 791L779 788M708 789L709 790L708 789z"/>
<path style="fill:#ffd601; stroke:none;" d="M779.333 791.667L779.667 792.333L779.333 791.667z"/>
<path style="fill:#c6603f; stroke:none;" d="M710 792L711 793L710 792M755 794L755 798L756 798L755 794M712 795L713 796L712 795M713 796L714 797L713 796M715 799L716 800L715 799M1244 799L1244 805L1245 805L1244 799M716 800L717 801L716 800M778 800L778 804L779 804L778 800M719 804L720 805L719 804z"/>
<path style="fill:#ffd601; stroke:none;" d="M778 804L778 807L779 807L778 804z"/>
<path style="fill:#c6603f; stroke:none;" d="M720 805L721 806L720 805M721 806L722 807L721 806M754 808L754 813L755 813L754 808M1243 810L1243 815L1244 815L1243 810M726 812L727 813L726 812M727 813L728 814L727 813M728 814L729 815L728 814z"/>
<path style="fill:#ffd601; stroke:none;" d="M1267 814C1265.24 854.865 1253.07 894.459 1244 934C1257.24 943.056 1267.61 955.956 1278 968C1284.57 975.616 1291 983.959 1302 983.921C1325.02 983.839 1324.38 952.978 1323.99 937C1323.17 903.818 1309.2 870.181 1291 843C1284.3 832.99 1276.63 821.365 1267 814z"/>
<path style="fill:#c6603f; stroke:none;" d="M729 815L730 816L729 815M777 815L777 821L778 821L777 815M730 816L731 817L730 816M731 817L732 818L731 817M1266 817L1266 820L1267 820L1266 817M732 818L733 819L732 818M1271 818L1272 819L1271 818M733 819L734 820L733 819M1272 819L1273 820L1272 819M734 820L735 821L734 820M1242 820L1242 824L1243 824L1242 820M1273 820L1274 821L1273 820z"/>
<path style="fill:#ffd601; stroke:none;" d="M777 821L777 827L778 827L777 821z"/>
<path style="fill:#c6603f; stroke:none;" d="M1274 821L1275 822L1274 821M740 825L741 826L740 825M741 826L742 827L741 826M1265 826L1265 829L1266 829L1265 826M1278 826L1279 827L1278 826M742 827L743 828L742 827M1279 827L1280 828L1279 827M1241 828L1241 832L1242 832L1241 828M746 830L747 831L746 830M747 831L748 832L747 831M753 831L753 835L754 835L753 831M1282 831L1283 832L1282 831M1283 832L1284 833L1283 832M750 833L751 834L750 833M1264 834L1264 837L1265 837L1264 834M1285 835L1286 836L1285 835M1240 836L1240 839L1241 839L1240 836M1286 836L1287 837L1286 836M1288 839L1289 840L1288 839M1263 841L1263 844L1264 844L1263 841M1290 842L1291 843L1290 842M1239 843L1239 846L1240 846L1239 843M1292 845L1293 846L1292 845M1262.33 848.667L1262.67 849.333L1262.33 848.667M1294 848L1295 849L1294 848M1238 849L1238 852L1239 852L1238 849M1296 851L1297 852L1296 851M1297 853L1298 854L1297 853M1261 854L1261 857L1262 857L1261 854M1237.33 856.667L1237.67 857.333L1237.33 856.667M1299 856L1300 857L1299 856M1300 858L1301 859L1300 858M1301 860L1302 861L1301 860M1260.33 861.667L1260.67 862.333L1260.33 861.667M1236.33 862.667L1236.67 863.333L1236.33 862.667M1259.33 866.667L1259.67 867.333L1259.33 866.667M1235 867L1235 870L1236 870L1235 867M1306 870L1307 871L1306 870z"/>
<path style="fill:#ffd601; stroke:none;" d="M777 871L777 877L778 877L777 871z"/>
<path style="fill:#c6603f; stroke:none;" d="M1234 872L1234 875L1235 875L1234 872M1258.33 872.667L1258.67 873.333L1258.33 872.667M1307 872L1308 873L1307 872M1308 874L1309 875L1308 874M1309 876L1310 877L1309 876M777 877L777 882L778 882L777 877M1233 877L1233 880L1234 880L1233 877M1257.33 877.667L1257.67 878.333L1257.33 877.667M1310 879L1311 880L1310 879M1311 881L1312 882L1311 881M1232.33 882.667L1232.67 883.333L1232.33 882.667M1256.33 882.667L1256.67 883.333L1256.33 882.667M1312 884L1313 885L1312 884M1313.33 886.667L1313.67 887.333L1313.33 886.667M1231.33 887.667L1231.67 888.333L1231.33 887.667M1255.33 887.667L1255.67 888.333L1255.33 887.667M1314 889L1315 890L1314 889z"/>
<path style="fill:#ffd601; stroke:none;" d="M778 890L778 893L779 893L778 890z"/>
<path style="fill:#c6603f; stroke:none;" d="M1254.33 891.667L1254.67 892.333L1254.33 891.667M1230 892L1231 893L1230 892M1315 892L1316 893L1315 892M778 893L778 897L779 897L778 893M1316.33 895.667L1316.67 896.333L1316.33 895.667M1229.33 896.667L1229.67 897.333L1229.33 896.667M1253.33 896.667L1253.67 897.333L1253.33 896.667M1317.33 898.667L1317.67 899.333L1317.33 898.667M1228.33 900.667L1228.67 901.333L1228.33 900.667M1252.33 900.667L1252.67 901.333L1252.33 900.667M1318.33 902.667L1318.67 903.333L1318.33 902.667z"/>
<path style="fill:#ffd601; stroke:none;" d="M779.333 903.667L779.667 904.333L779.333 903.667z"/>
<path style="fill:#c6603f; stroke:none;" d="M1227.33 904.667L1227.67 905.333L1227.33 904.667M1251.33 904.667L1251.67 905.333L1251.33 904.667M779 905L779 908L780 908L779 905M1319.33 906.667L1319.67 907.333L1319.33 906.667M1226.33 908.667L1226.67 909.333L1226.33 908.667M1250 909L1251 910L1250 909M1320.33 910.667L1320.67 911.333L1320.33 910.667M1225.33 912.667L1225.67 913.333L1225.33 912.667M1249.33 912.667L1249.67 913.333L1249.33 912.667z"/>
<path style="fill:#ffd601; stroke:none;" d="M780 913L781 914L780 913z"/>
<path style="fill:#c6603f; stroke:none;" d="M780 914L780 917L781 917L780 914M1224 916L1225 917L1224 916M1248.33 916.667L1248.67 917.333L1248.33 916.667M1321.33 916.667L1321.67 917.333L1321.33 916.667M1223.33 919.667L1223.67 920.333L1223.33 919.667M1247.33 920.667L1247.67 921.333L1247.33 920.667z"/>
<path style="fill:#ffd601; stroke:none;" d="M781 921L782 922L781 921z"/>
<path style="fill:#c6603f; stroke:none;" d="M1322 921L1322 924L1323 924L1322 921M781 922L781 925L782 925L781 922M1222 923L1223 924L1222 923M1246 924L1247 925L1246 924M1221.33 926.667L1221.67 927.333L1221.33 926.667M1245.33 927.667L1245.67 928.333L1245.33 927.667z"/>
<path style="fill:#ffd601; stroke:none;" d="M782.333 928.667L782.667 929.333L782.333 928.667z"/>
<path style="fill:#c6603f; stroke:none;" d="M1323 929L1323 932L1324 932L1323 929M782.333 930.667L782.667 931.333L782.333 930.667M1220 930L1221 931L1220 930M1244 931L1245 932L1244 931M1219.33 933.667L1219.67 934.333L1219.33 933.667M1245 934L1246 935L1245 934z"/>
<path style="fill:#ffd601; stroke:none;" d="M783 935L784 936L783 935z"/>
<path style="fill:#c6603f; stroke:none;" d="M1246 935L1247 936L1246 935M783.333 936.667L783.667 937.333L783.333 936.667M1218.33 936.667L1218.67 937.333L1218.33 936.667M1251 939L1252 940L1251 939M1217 940L1218 941L1217 940M1252 940L1253 941L1252 940z"/>
<path style="fill:#ffd601; stroke:none;" d="M784 941L785 942L784 941z"/>
<path style="fill:#c6603f; stroke:none;" d="M1253 941L1254 942L1253 941M784.333 942.667L784.667 943.333L784.333 942.667M1254 942L1255 943L1254 942M1324 942L1324 949L1325 949L1324 942M1216 943L1217 944L1216 943M1255 943L1256 944L1255 943z"/>
<path style="fill:#ffe87c; stroke:none;" d="M837.018 945.757C827.631 949.232 831.62 961.149 835.789 967C844.679 979.475 861.013 982.187 875 986.656C932.426 1005 990.968 1012 1051 1012C1064.39 1012 1077.65 1011.02 1091 1011C1097.37 1010.99 1106.67 1011.32 1111.99 1007.43C1123.3 999.155 1123.5 987.675 1109 983.763C1089.93 978.618 1067.5 984.764 1048 984.996C1003.88 985.521 959.566 984.193 917 971.115C897.726 965.193 879.117 957.371 860 951C854.033 949.011 843.232 943.457 837.018 945.757z"/>
<path style="fill:#c6603f; stroke:none;" d="M1215 946L1216 947L1215 946M785.333 947.667L785.667 948.333L785.333 947.667M1214 949L1215 950L1214 949M1262 950L1263 951L1262 950M1263 951L1264 952L1263 951z"/>
<path style="fill:#ffd601; stroke:none;" d="M786 952L787 953L786 952z"/>
<path style="fill:#c6603f; stroke:none;" d="M1213 952L1214 953L1213 952M1264 952L1265 953L1264 952M786 953L787 954L786 953M1265 953L1266 954L1265 953M1212.33 954.667L1212.67 955.333L1212.33 954.667M1266 954L1267 955L1266 954M1267 955L1268 956L1267 955M1268 956L1269 957L1268 956z"/>
<path style="fill:#ffd601; stroke:none;" d="M787 957L788 958L787 957z"/>
<path style="fill:#c6603f; stroke:none;" d="M1211 957L1212 958L1211 957M787 958L788 959L787 958M1323.33 958.667L1323.67 959.333L1323.33 958.667M1210 960L1211 961L1210 960M1272 961L1273 962L1272 961M788.333 962.667L788.667 963.333L788.333 962.667M1273 962L1274 963L1273 962M1209 963L1210 964L1209 963M1274 963L1275 964L1274 963M1322.33 963.667L1322.67 964.333L1322.33 963.667M1208 965L1209 966L1208 965z"/>
<path style="fill:#ffd601; stroke:none;" d="M789 966L790 967L789 966z"/>
<path style="fill:#c6603f; stroke:none;" d="M789 967L790 968L789 967M1321 967L1322 968L1321 967M1207 968L1208 969L1207 968M1278 968L1279 969L1278 968M1279 969L1280 970L1279 969z"/>
<path style="fill:#ffd601; stroke:none;" d="M790 970L791 971L790 970z"/>
<path style="fill:#c6603f; stroke:none;" d="M1206.33 970.667L1206.67 971.333L1206.33 970.667M1280 970L1281 971L1280 970M1320 970L1321 971L1320 970M790 971L791 972L790 971M1319 972L1320 973L1319 972M1205 973L1206 974L1205 973z"/>
<path style="fill:#ffd601; stroke:none;" d="M791 974L792 975L791 974z"/>
<path style="fill:#c6603f; stroke:none;" d="M1318 974L1319 975L1318 974M791 975L792 976L791 975M1204.33 975.667L1204.67 976.333L1204.33 975.667M1284 975L1285 976L1284 975M1285 976L1286 977L1285 976M1286 977L1287 978L1286 977M1316 977L1317 978L1316 977z"/>
<path style="fill:#ffd601; stroke:none;" d="M792 978L793 979L792 978M849 978L849 979L852 979L849 978z"/>
<path style="fill:#c6603f; stroke:none;" d="M1203 978L1204 979L1203 978M1287 978L1288 979L1287 978M1315 978L1316 979L1315 978M792 979L793 980L792 979M847 979L848 980L847 979M854 979L855 980L854 979M1288 979L1289 980L1288 979M1314 979L1315 980L1314 979M856.667 980.333L857.333 980.667L856.667 980.333M1202 980L1203 981L1202 980M1289 980L1290 981L1289 980M859 981L860 982L859 981z"/>
<path style="fill:#ffd601; stroke:none;" d="M860 981L861 982L860 981z"/>
<path style="fill:#c6603f; stroke:none;" d="M1291 981L1292 982L1291 981M1311 981L1312 982L1311 981M793.333 982.667L793.667 983.333L793.333 982.667M862 982L863 983L862 982M1293 982L1294 983L1293 982M1309 982L1310 983L1309 982M846 983L847 984L846 983M865 983L866 984L865 983M1201 983L1202 984L1201 983M1296.67 983.333L1297.33 983.667L1296.67 983.333M1306.67 983.333L1307.33 983.667L1306.67 983.333M868 984L869 985L868 984z"/>
<path style="fill:#ffd601; stroke:none;" d="M794 985L795 986L794 985z"/>
<path style="fill:#c6603f; stroke:none;" d="M871 985L872 986L871 985M1200 985L1201 986L1200 985M794 986L795 987L794 986M849 986L850 987L849 986M874 986L875 987L874 986M877 987L878 988L877 987M1199 987L1200 988L1199 987M852 988L853 989L852 988M880 988L881 989L880 988z"/>
<path style="fill:#ffd601; stroke:none;" d="M881 988L882 989L881 988z"/>
<path style="fill:#c6603f; stroke:none;" d="M795.333 989.667L795.667 990.333L795.333 989.667M883.667 989.333L884.333 989.667L883.667 989.333M1198.33 989.667L1198.67 990.333L1198.33 989.667M855 990L856 991L855 990M887 990L888 991L887 990M890 991L891 992L890 991z"/>
<path style="fill:#ffd601; stroke:none;" d="M891 991L892 992L891 991M796 992L797 993L796 992z"/>
<path style="fill:#c6603f; stroke:none;" d="M858 992L859 993L858 992M894 992L895 993L894 992M1197 992L1198 993L1197 992M796 993L797 994L796 993M897 993L898 994L897 993z"/>
<path style="fill:#ffd601; stroke:none;" d="M898 993L899 994L898 993z"/>
<path style="fill:#c6603f; stroke:none;" d="M861 994L862 995L861 994M901 994L902 995L901 994z"/>
<path style="fill:#ffd601; stroke:none;" d="M902 994L903 995L902 994z"/>
<path style="fill:#c6603f; stroke:none;" d="M1196 994L1197 995L1196 994M863 995L864 996L863 995M905 995L906 996L905 995M797 996L798 997L797 996M908.667 996.333L909.333 996.667L908.667 996.333M1195 996L1196 997L1195 996M866 997L867 998L866 997M912.667 997.333L913.333 997.667L912.667 997.333z"/>
<path style="fill:#ffd601; stroke:none;" d="M914 997L915 998L914 997z"/>
<path style="fill:#c6603f; stroke:none;" d="M868 998L869 999L868 998M917 998L918 999L917 998z"/>
<path style="fill:#ffd601; stroke:none;" d="M918 998L919 999L918 998z"/>
<path style="fill:#c6603f; stroke:none;" d="M1194 998L1195 999L1194 998M798 999L799 1000L798 999M870 999L871 1000L870 999M921.667 999.333L922.333 999.667L921.667 999.333M872 1000L873 1001L872 1000M925.667 1000.33L926.333 1000.67L925.667 1000.33z"/>
<path style="fill:#ffd601; stroke:none;" d="M927 1000L928 1001L927 1000z"/>
<path style="fill:#c6603f; stroke:none;" d="M1193 1000L1194 1001L1193 1000M874 1001L875 1002L874 1001M930.667 1001.33L931.333 1001.67L930.667 1001.33M799 1002L800 1003L799 1002M935.667 1002.33L936.333 1002.67L935.667 1002.33M1192 1002L1193 1003L1192 1002M940.667 1003.33L941.333 1003.67L940.667 1003.33z"/>
<path style="fill:#ffd601; stroke:none;" d="M942 1003L943 1004L942 1003z"/>
<path style="fill:#c6603f; stroke:none;" d="M945.667 1004.33L946.333 1004.67L945.667 1004.33z"/>
<path style="fill:#ffd601; stroke:none;" d="M947 1004L948 1005L947 1004z"/>
<path style="fill:#c6603f; stroke:none;" d="M1191 1004L1192 1005L1191 1004M800 1005L801 1006L800 1005M882 1005L883 1006L882 1005M951.667 1005.33L952.333 1005.67L951.667 1005.33z"/>
<path style="fill:#ffd601; stroke:none;" d="M953 1005L954 1006L953 1005z"/>
<path style="fill:#c6603f; stroke:none;" d="M884 1006L885 1007L884 1006M957 1006L957 1007L960 1007L957 1006z"/>
<path style="fill:#ffd601; stroke:none;" d="M960 1006L961 1007L960 1006z"/>
<path style="fill:#c6603f; stroke:none;" d="M1190 1006L1191 1007L1190 1006M886 1007L887 1008L886 1007M964 1007L964 1008L967 1008L964 1007z"/>
<path style="fill:#ffd601; stroke:none;" d="M967 1007L968 1008L967 1007z"/>
<path style="fill:#c6603f; stroke:none;" d="M801 1008L802 1009L801 1008M888 1008L889 1009L888 1008M972.667 1008.33L973.333 1008.67L972.667 1008.33z"/>
<path style="fill:#ffd601; stroke:none;" d="M974.667 1008.33L975.333 1008.67L974.667 1008.33z"/>
<path style="fill:#c6603f; stroke:none;" d="M1189 1008L1190 1009L1189 1008M890 1009L891 1010L890 1009M980 1009L980 1010L984 1010L980 1009z"/>
<path style="fill:#ffd601; stroke:none;" d="M984.667 1009.33L985.333 1009.67L984.667 1009.33M802 1010L803 1011L802 1010z"/>
<path style="fill:#c6603f; stroke:none;" d="M893 1010L894 1011L893 1010M992 1010L992 1011L995 1011L992 1010z"/>
<path style="fill:#ffd601; stroke:none;" d="M995.667 1010.33L996.333 1010.67L995.667 1010.33M1099 1010L1099 1011L1102 1011L1099 1010z"/>
<path style="fill:#c6603f; stroke:none;" d="M1102 1010L1102 1011L1105 1011L1102 1010M1188 1010L1189 1011L1188 1010M895 1011L896 1012L895 1011M1003 1011L1003 1012L1008 1012L1003 1011z"/>
<path style="fill:#ffd601; stroke:none;" d="M1008 1011L1008 1012L1014 1012L1008 1011M1076 1011L1076 1012L1081 1012L1076 1011z"/>
<path style="fill:#c6603f; stroke:none;" d="M1081 1011L1081 1012L1089 1012L1081 1011M1108 1011L1109 1012L1108 1011M897.667 1012.33L898.333 1012.67L897.667 1012.33M1026 1012L1026 1013L1032 1013L1026 1012z"/>
<path style="fill:#ffd601; stroke:none;" d="M1032 1012L1033 1013L1032 1012z"/>
<path style="fill:#c6603f; stroke:none;" d="M1033 1012L1033 1013L1066 1013L1033 1012M1187 1012L1188 1013L1187 1012M804 1013L805 1014L804 1013M900 1013L901 1014L900 1013M805 1014L806 1015L805 1014M903 1014L904 1015L903 1014M1186 1014L1187 1015L1186 1014M806 1015L807 1016L806 1015M905.667 1015.33L906.333 1015.67L905.667 1015.33M807 1016L808 1017L807 1016M908 1016L909 1017L908 1016M1185 1016L1186 1017L1185 1016z"/>
<path style="fill:#ffd601; stroke:none;" d="M808 1017L809 1018L808 1017z"/>
<path style="fill:#c6603f; stroke:none;" d="M911 1017L912 1018L911 1017M1106 1017L1107 1018L1106 1017M809 1018L810 1019L809 1018M914 1018L915 1019L914 1018M1103.67 1018.33L1104.33 1018.67L1103.67 1018.33M1184 1018L1185 1019L1184 1018M810 1019L811 1020L810 1019M1101 1019L1102 1020L1101 1019M811 1020L812 1021L811 1020M915 1020L916 1021L915 1020M1098 1020L1099 1021L1098 1020M1183 1020L1184 1021L1183 1020M812 1021L813 1022L812 1021M1094.67 1021.33L1095.33 1021.67L1094.67 1021.33M1182 1021L1183 1022L1182 1021M1091 1022L1092 1023L1091 1022M914 1023L915 1024L914 1023M1087 1023L1088 1024L1087 1023M1181 1023L1182 1024L1181 1023M816 1024L817 1025L816 1024M1083 1024L1084 1025L1083 1024M817 1025L818 1026L817 1025M1078.67 1025.33L1079.33 1025.67L1078.67 1025.33M1180 1025L1181 1026L1180 1025z"/>
<path style="fill:#ffd601; stroke:none;" d="M819 1026L820 1027L819 1026z"/>
<path style="fill:#c6603f; stroke:none;" d="M913 1026L914 1027L913 1026M1074.67 1026.33L1075.33 1026.67L1074.67 1026.33M820 1027L821 1028L820 1027M1070.67 1027.33L1071.33 1027.67L1070.67 1027.33M1179 1027L1180 1028L1179 1027z"/>
<path style="fill:#ffd601; stroke:none;" d="M822 1028L823 1029L822 1028z"/>
<path style="fill:#c6603f; stroke:none;" d="M912 1028L913 1029L912 1028M1065.67 1028.33L1066.33 1028.67L1065.67 1028.33M823 1029L824 1030L823 1029M1060.67 1029.33L1061.33 1029.67L1060.67 1029.33M825 1030L826 1031L825 1030M1177 1030L1178 1031L1177 1030M827 1031L828 1032L827 1031M911 1031L912 1032L911 1031M1060 1031L1060 1034L1061 1034L1060 1031M1176 1032L1177 1033L1176 1032M833 1034L834 1035L833 1034M909 1034L910 1035L909 1034M835 1035L836 1036L835 1035M1174 1035L1175 1036L1174 1035M837 1036L838 1037L837 1036M1061.33 1036.67L1061.67 1037.33L1061.33 1036.67M840 1037L841 1038L840 1037M907 1037L908 1038L907 1037M1173 1037L1174 1038L1173 1037M842.667 1038.33L843.333 1038.67L842.667 1038.33M906 1038L907 1039L906 1038M1172 1038L1173 1039L1172 1038M845.667 1039.33L846.333 1039.67L845.667 1039.33M905 1039L906 1040L905 1039M848.667 1040.33L849.333 1040.67L848.667 1040.33M904 1040L905 1041L904 1040M1062 1040L1063 1041L1062 1040M852 1041L853 1042L852 1041M1169 1041L1170 1042L1169 1041M856.667 1042.33L857.333 1042.67L856.667 1042.33M901 1042L902 1043L901 1042M1063 1042L1064 1043L1063 1042M1168 1042L1169 1043L1168 1042M860.667 1043.33L861.333 1043.67L860.667 1043.33M899 1043L900 1044L899 1043M1166 1043L1167 1044L1166 1043M866.667 1044.33L867.333 1044.67L866.667 1044.33M896.667 1044.33L897.333 1044.67L896.667 1044.33M1064 1044L1065 1045L1064 1044M1165 1044L1166 1045L1165 1044M873 1045L873 1046L876 1046L873 1045M892.667 1045.33L893.333 1045.67L892.667 1045.33M1163 1045L1164 1046L1163 1045M1160 1047L1161 1048L1160 1047M1067 1048L1068 1049L1067 1048M1158 1048L1159 1049L1158 1048M1068 1049L1069 1050L1068 1049M1156 1049L1157 1050L1156 1049M1154 1050L1155 1051L1154 1050M1071 1051L1072 1052L1071 1051M1151 1051L1152 1052L1151 1051M1149 1052L1150 1053L1149 1052M1074 1053L1075 1054L1074 1053M1146 1053L1147 1054L1146 1053M1077 1054L1078 1055L1077 1054M1142.67 1054.33L1143.33 1054.67L1142.67 1054.33M1079.67 1055.33L1080.33 1055.67L1079.67 1055.33M1139 1055L1140 1056L1139 1055M1083.67 1056.33L1084.33 1056.67L1083.67 1056.33M1134.67 1056.33L1135.33 1056.67L1134.67 1056.33M1088 1057L1088 1058L1091 1058L1088 1057M1128 1057L1128 1058L1131 1058L1128 1057M1097 1058L1097 1059L1108 1059L1097 1058M1115 1058L1115 1059L1123 1059L1115 1058z"/>
<path style="fill:#9a1f52; stroke:none;" d="M1429 1161.46C1381.51 1170.03 1396.76 1241.39 1444 1232.53C1489.46 1224.01 1474.15 1153.32 1429 1161.46M1043 1162.42C1023.07 1165.04 1004.63 1166.71 986 1175.31C927.107 1202.49 925.415 1280.01 976 1316.09C1003.73 1335.87 1034.44 1332.69 1065 1342.75C1081.52 1348.19 1097.02 1363.27 1093.67 1382C1091.72 1392.91 1080.59 1400.38 1071 1404.17C1048.87 1412.94 1019.71 1409.74 1001 1394.53C990.829 1386.27 987.395 1373.09 975 1367.32C964.577 1362.48 951.565 1363.08 942.001 1369.8C918.349 1386.41 935.778 1416.41 951.039 1431.99C981.293 1462.86 1028.66 1472.11 1070 1465.73C1088.07 1462.93 1106.27 1456.31 1121 1445.37C1158.8 1417.29 1167.98 1360.31 1139.52 1322C1125.12 1302.61 1102.27 1290.64 1079 1285.43C1055.75 1280.21 998.264 1282.52 1001.09 1246C1002.82 1223.74 1036.82 1219.51 1054 1221.17C1065.81 1222.31 1077.35 1226.73 1085.96 1235.09C1100.08 1248.79 1106.97 1267.84 1131 1262.32C1162.48 1255.09 1151.84 1220.68 1137.99 1203C1116.28 1175.3 1078.6 1157.75 1043 1162.42M191 1310C179.311 1310.03 168.579 1314.36 162.533 1325C153.075 1341.64 162.617 1365.44 182 1368.67C210.071 1373.36 242.511 1369 271 1369C294.822 1369 317.994 1370.08 340 1359.24C402.277 1328.57 412.035 1237.64 362 1191.09C336.845 1167.69 306.381 1166 274 1166C250.46 1166 205.097 1156.53 193.185 1183C188.1 1194.3 191 1210.83 191 1223L191 1310M432 1166.52C400.184 1173.32 410 1222.32 410 1246L410 1353C410 1374.14 407.667 1396.59 414.194 1417C424.274 1448.52 455.377 1471.18 489 1462.52C507.758 1457.69 517.139 1439.08 510.441 1421C507.588 1413.3 500.9 1406.88 493 1404.6C483.611 1401.88 473.432 1405.49 471.326 1393C468.233 1374.66 471 1353.6 471 1335L471 1216C471 1195.47 471.074 1166.35 443 1166C439.366 1165.96 435.574 1165.75 432 1166.52M1201 1166.53C1173.61 1172.82 1179 1206.2 1179 1227L1179 1399C1179 1418.78 1172.95 1448.22 1193 1460.24C1211.81 1471.51 1238.93 1459.78 1239.96 1437C1241.08 1412.44 1240 1387.59 1240 1363C1240 1351.57 1237.98 1337.94 1241.76 1327C1248.27 1308.16 1271.15 1301.62 1289 1304.44C1304.65 1306.91 1316.58 1317.66 1320.52 1333C1323.24 1343.56 1322 1355.18 1322 1366L1322 1423C1322 1447.24 1332.78 1468.87 1361 1463.53C1375.07 1460.87 1383.36 1447.55 1383.96 1434C1384.88 1413.09 1384 1391.94 1384 1371C1384 1350.23 1384.85 1329.01 1378.33 1309C1366.65 1273.17 1333.48 1246.19 1295 1246C1283.88 1245.95 1272.89 1245.51 1262 1248.13C1256.72 1249.4 1250.05 1253.11 1245.05 1249.47C1237.99 1244.32 1240 1233.6 1240 1226C1240 1205.27 1245.12 1169.82 1216 1166.19C1211.35 1165.6 1205.58 1165.48 1201 1166.53M1509 1254C1500 1254.07 1490.6 1256.11 1484.33 1263.09C1472.6 1276.15 1476.69 1300.21 1493 1307.47C1503.64 1312.21 1517.63 1310 1529 1310L1577 1310C1585.8 1310 1595.49 1311.17 1604 1308.56C1618.58 1304.08 1624.14 1289.07 1621.67 1275C1618.99 1259.72 1603.66 1254.02 1590 1254C1585.18 1253.99 1571.38 1256.5 1571.47 1248.98C1571.92 1211.47 1634.33 1235.04 1631.49 1193C1631.21 1188.9 1630.51 1184.68 1628.6 1181C1618.7 1161.98 1592.69 1164.07 1575 1168.48C1535.31 1178.35 1510.71 1214.19 1509 1254z"/>
<path style="fill:#0d010a; stroke:none;" d="M253 1225L253 1310C271.262 1310 295.213 1314.1 312 1305.62C340.669 1291.15 339.082 1246.44 313 1230.47C296.655 1220.46 271.389 1225 253 1225z"/>
<path style="fill:#9a1f52; stroke:none;" d="M659 1386C651.995 1387.18 646.961 1396.5 641 1400.48C626.67 1410.03 606.887 1410.75 592 1401.91C549.873 1376.88 563.295 1300.03 617 1303.09C674.78 1306.38 664 1376.28 664 1416C664 1434.88 662.823 1456.58 685 1463.43C689.232 1464.73 693.617 1465.24 698 1464.56C728.149 1459.86 724 1430.03 724 1407C724 1352.51 727.78 1297.1 676 1263.08C634.237 1235.64 572.305 1240.88 537.089 1277.04C508.228 1306.68 499.006 1351.68 510.721 1391C522.491 1430.5 557.419 1463.77 600 1465.01C616.314 1465.49 630.038 1463.47 641.957 1451C656.575 1435.7 657.408 1406.17 659 1386M746 1247.46C729.122 1250.51 717.592 1265.84 721.529 1283C723.626 1292.14 729.891 1300.8 734.219 1309C743.539 1326.66 753.195 1344.2 762.244 1362C767.221 1371.79 775.908 1397.73 790 1395.52C804.503 1393.23 824.602 1371.55 822.631 1356C821.322 1345.67 812.864 1334.23 808.247 1325C797.859 1304.22 788.785 1281.73 776.532 1262C769.974 1251.44 758.508 1245.21 746 1247.46M894 1247.47C871.055 1251.8 862.319 1290.5 854.14 1309C833.501 1355.68 812.637 1402.26 792.139 1449C783.29 1469.18 770.099 1490.59 764.9 1512C759.926 1532.48 778.845 1549.96 799 1547.83C823.631 1545.22 831.567 1506.99 840.231 1488C860.518 1443.53 880.095 1398.7 899.86 1354C909.796 1331.53 924.292 1307.82 930.334 1284C935.879 1262.14 915.948 1243.32 894 1247.47M1431 1247.44C1417.68 1249.53 1406.68 1259.14 1405.17 1273C1401.32 1308.44 1405 1346.33 1405 1382C1405 1400.58 1401.19 1424.01 1405.92 1442C1410.23 1458.33 1426.03 1466.06 1442 1463.7C1465.77 1460.19 1466 1437.73 1466 1419L1466 1321C1466 1304.8 1468.07 1287.03 1465.7 1271C1463.3 1254.76 1446.6 1244.99 1431 1247.44M1787 1452C1798.25 1472.75 1833.18 1465.43 1840.24 1445C1845.68 1429.25 1842 1407.54 1842 1391L1842 1309C1842 1296.01 1844.25 1280.59 1840.84 1268C1835.8 1249.38 1813.78 1242.09 1797 1249.92C1779.87 1257.9 1781 1275.03 1781 1291L1781 1351C1781 1361.65 1782.54 1373.74 1779.09 1384C1772.18 1404.55 1746.83 1410.76 1728 1406.1C1704.8 1400.35 1699 1380.08 1699 1359L1699 1302C1699 1290.85 1700.25 1278.86 1697.24 1268C1691.03 1245.55 1659.23 1239.48 1644.33 1257.02C1630.08 1273.78 1637 1309.36 1637 1330C1637 1358.58 1634.72 1388.41 1647.32 1415C1672.51 1468.13 1739.05 1477.23 1787 1452M1558 1317.42C1543.95 1319.27 1520.87 1315.44 1511.97 1329.01C1505.45 1338.95 1509 1357.53 1509 1369L1509 1418C1509 1426.02 1507.74 1435.25 1510.04 1443C1514.53 1458.1 1529.98 1465.87 1545 1463.7C1557.41 1461.91 1567.02 1453.22 1569.96 1441C1572.33 1431.17 1571 1420.05 1571 1410L1571 1352C1571 1339.13 1576.87 1314.95 1558 1317.42M238 1375.42C224.137 1377.24 202.77 1373.71 193.854 1387C188.786 1394.56 191 1405.4 191 1414C191 1423.09 189.289 1434.21 191.789 1443C196.165 1458.4 212.043 1465.63 227 1463.82C257.025 1460.17 253 1425.85 253 1404C253 1389.96 257.269 1372.89 238 1375.42z"/>
</svg>
